# xmcd
#
# Track frame offsets:
#	150
#	25100
#	51650
#	66475
#	73100
#	89225
#	127075
#	141725
#	165850
#
# Disc length: 2430 seconds
#
# Revision: 1
# Processed by: cddbd v1.4PL0 Copyright (c) Steve Scherf et al.
# Submitted via: audiograbber 1.82.02
#
DISCID=93097c09
DTITLE=Livin' Blues - blue breeze
DYEAR=1900
DGENRE=
TTITLE0=Shylina
TTITLE1=Back Stage
TTITLE2=Midnight Blues
TTITLE3=Pisces
TTITLE4=Bus 29
TTITLE5=Blue Breeze
TTITLE6=Pick Up My Mojo
TTITLE7=That Night
TTITLE8=Black Jack Dilly
EXTD=
EXTT0=
EXTT1=
EXTT2=
EXTT3=
EXTT4=
EXTT5=
EXTT6=
EXTT7=
EXTT8=
PLAYORDER=
